<svg width="311" height="30" viewBox="0 0 311 30" fill="none" xmlns="http://www.w3.org/2000/svg">
<path d="M1.173 7.862H3.842V17.756H9.758V20H1.173V7.862ZM13.9191 13.574H15.9931C16.2991 13.574 16.5938 13.5513 16.8771 13.506C17.1605 13.4607 17.4098 13.3757 17.6251 13.251C17.8405 13.115 18.0105 12.928 18.1351 12.69C18.2711 12.452 18.3391 12.1403 18.3391 11.755C18.3391 11.3697 18.2711 11.058 18.1351 10.82C18.0105 10.582 17.8405 10.4007 17.6251 10.276C17.4098 10.14 17.1605 10.0493 16.8771 10.004C16.5938 9.95867 16.2991 9.936 15.9931 9.936H13.9191V13.574ZM11.2501 7.862H16.7241C17.4835 7.862 18.1295 7.97533 18.6621 8.202C19.1948 8.41733 19.6255 8.70633 19.9541 9.069C20.2941 9.43167 20.5378 9.84533 20.6851 10.31C20.8438 10.7747 20.9231 11.2563 20.9231 11.755C20.9231 12.2423 20.8438 12.724 20.6851 13.2C20.5378 13.6647 20.2941 14.0783 19.9541 14.441C19.6255 14.8037 19.1948 15.0983 18.6621 15.325C18.1295 15.5403 17.4835 15.648 16.7241 15.648H13.9191V20H11.2501V7.862ZM22.589 7.862H25.241L30.307 16.005H30.341V7.862H32.84V20H30.171L25.122 11.874H25.088V20H22.589V7.862ZM40.958 14.322H53.538V16.396H40.958V14.322ZM61.6525 7.862H64.3215V17.756H70.2375V20H61.6525V7.862ZM74.7896 15.308H77.9346L76.4046 10.854H76.3706L74.7896 15.308ZM75.0446 7.862H77.7816L82.3206 20H79.5496L78.6316 17.297H74.0926L73.1406 20H70.4546L75.0446 7.862ZM86.0363 13.574H88.1103C88.4163 13.574 88.711 13.5513 88.9943 13.506C89.2777 13.4607 89.527 13.3757 89.7423 13.251C89.9577 13.115 90.1277 12.928 90.2523 12.69C90.3883 12.452 90.4563 12.1403 90.4563 11.755C90.4563 11.3697 90.3883 11.058 90.2523 10.82C90.1277 10.582 89.9577 10.4007 89.7423 10.276C89.527 10.14 89.2777 10.0493 88.9943 10.004C88.711 9.95867 88.4163 9.936 88.1103 9.936H86.0363V13.574ZM83.3673 7.862H88.8413C89.6007 7.862 90.2467 7.97533 90.7793 8.202C91.312 8.41733 91.7427 8.70633 92.0713 9.069C92.4113 9.43167 92.655 9.84533 92.8023 10.31C92.961 10.7747 93.0403 11.2563 93.0403 11.755C93.0403 12.2423 92.961 12.724 92.8023 13.2C92.655 13.6647 92.4113 14.0783 92.0713 14.441C91.7427 14.8037 91.312 15.0983 90.7793 15.325C90.2467 15.5403 89.6007 15.648 88.8413 15.648H86.0363V20H83.3673V7.862Z" fill="black"/>
<path d="M119.098 20.2808C118.851 20.2808 118.641 19.7904 118.469 18.8096L117.503 13.1943C117.354 12.2585 117.178 11.7905 116.976 11.7905C116.781 11.7905 116.564 11.8804 116.324 12.0601C116.085 12.2397 115.766 12.5205 115.37 12.9023C115.108 12.8649 114.943 12.7264 114.875 12.4868C115.31 11.8205 115.811 11.2253 116.38 10.7012C116.949 10.1696 117.417 9.90381 117.784 9.90381C118.181 9.90381 118.473 10.1209 118.66 10.5552C118.855 10.9819 119.046 11.7606 119.233 12.8911L120.019 17.7876L120.075 17.8213C120.397 17.3271 120.869 16.4961 121.49 15.3281C122.112 14.1527 122.639 13.0558 123.074 12.0376C123.411 11.8654 123.785 11.7756 124.197 11.7681C124.332 12.0975 124.522 12.7788 124.77 13.812C125.091 15.1522 125.361 16.4774 125.578 17.7876L125.747 17.8325C126.098 17.4432 126.443 17.0277 126.78 16.5859C127.207 16.0094 127.558 15.3356 127.835 14.5645C128.112 13.7933 128.251 13.1419 128.251 12.6104C128.251 12.1761 128.09 11.7157 127.768 11.229C127.686 11.1017 127.645 10.9445 127.645 10.7573C127.645 10.1883 128 9.90381 128.711 9.90381C129.513 9.90381 129.913 10.2669 129.913 10.9932C129.913 11.6595 129.707 12.4756 129.295 13.4414C128.674 14.9014 128.019 16.118 127.33 17.0913C126.611 18.1021 126.035 18.8807 125.601 19.4272C125.144 19.9963 124.792 20.2808 124.545 20.2808C124.32 20.2808 124.144 19.8315 124.017 18.9331C123.785 17.3384 123.482 15.7174 123.107 14.0703L122.973 14.0928C122.194 15.7848 121.221 17.548 120.053 19.3823C119.881 19.6519 119.701 19.869 119.514 20.0337C119.334 20.1984 119.195 20.2808 119.098 20.2808ZM133.328 7.68018C133.11 7.46305 133.002 7.20101 133.002 6.89404C133.002 6.58708 133.11 6.32503 133.328 6.10791C133.552 5.89079 133.811 5.78223 134.102 5.78223C134.394 5.78223 134.649 5.89079 134.866 6.10791C135.091 6.32503 135.203 6.58708 135.203 6.89404C135.203 7.20101 135.091 7.46305 134.866 7.68018C134.649 7.88981 134.394 7.99463 134.102 7.99463C133.811 7.99463 133.552 7.88981 133.328 7.68018ZM134.013 12.6328L132.979 17.1475C132.807 17.8812 132.721 18.3192 132.721 18.4614C132.721 18.7235 132.8 18.8545 132.957 18.8545C133.077 18.8545 133.283 18.7422 133.575 18.5176C133.867 18.293 134.159 18.0197 134.451 17.6978C134.713 17.6978 134.889 17.8288 134.978 18.0908C133.855 19.5133 132.789 20.2246 131.778 20.2246C131.149 20.2246 130.834 19.9738 130.834 19.4722C130.834 19.255 130.965 18.5475 131.227 17.3496L132.306 12.6216C132.44 12.0376 132.512 11.6445 132.519 11.4424C132.519 11.1654 132.38 11.0119 132.103 10.9819L131.183 10.9146C131.01 10.6675 131.003 10.4541 131.16 10.2744C132.725 10.0723 133.676 9.97119 134.013 9.97119C134.327 9.97119 134.484 10.1322 134.484 10.4541C134.484 10.5739 134.462 10.7349 134.417 10.937C134.38 11.1392 134.312 11.4349 134.215 11.8242C134.117 12.2061 134.05 12.4756 134.013 12.6328ZM140.852 6.59082L138.505 17.0801C138.318 17.8962 138.225 18.3791 138.225 18.5288C138.225 18.7459 138.318 18.8545 138.505 18.8545C138.655 18.8545 138.895 18.731 139.224 18.4839C139.553 18.2368 139.879 17.9149 140.201 17.5181C140.433 17.5181 140.602 17.6491 140.706 17.9111C139.771 19.4609 138.659 20.2321 137.371 20.2246C136.727 20.2246 136.405 19.8877 136.405 19.2139C136.405 18.877 136.514 18.2256 136.731 17.2598L139.011 7.05127C139.115 6.57959 139.168 6.19775 139.168 5.90576C139.168 5.479 139.007 5.26188 138.685 5.25439L137.977 5.20947C137.903 5.20947 137.861 5.17204 137.854 5.09717L137.933 4.54688C139.265 4.45703 140.336 4.25488 141.144 3.94043C141.332 3.94043 141.425 4.01904 141.425 4.17627C141.261 4.7902 141.07 5.59505 140.852 6.59082ZM146.502 6.59082L144.155 17.0801C143.967 17.8962 143.874 18.3791 143.874 18.5288C143.874 18.7459 143.967 18.8545 144.155 18.8545C144.304 18.8545 144.544 18.731 144.873 18.4839C145.203 18.2368 145.529 17.9149 145.85 17.5181C146.083 17.5181 146.251 17.6491 146.356 17.9111C145.42 19.4609 144.308 20.2321 143.02 20.2246C142.377 20.2246 142.055 19.8877 142.055 19.2139C142.055 18.877 142.163 18.2256 142.38 17.2598L144.66 7.05127C144.765 6.57959 144.817 6.19775 144.817 5.90576C144.817 5.479 144.656 5.26188 144.334 5.25439L143.627 5.20947C143.552 5.20947 143.511 5.17204 143.503 5.09717L143.582 4.54688C144.915 4.45703 145.985 4.25488 146.794 3.94043C146.981 3.94043 147.075 4.01904 147.075 4.17627C146.91 4.7902 146.719 5.59505 146.502 6.59082ZM160.822 17.1475C160.649 17.8812 160.563 18.3192 160.563 18.4614C160.563 18.7235 160.642 18.8545 160.799 18.8545C160.919 18.8545 161.125 18.7422 161.417 18.5176C161.709 18.293 162.001 18.0197 162.293 17.6978C162.555 17.6978 162.731 17.8288 162.821 18.0908C161.698 19.5133 160.608 20.2246 159.553 20.2246C158.924 20.2246 158.609 19.9738 158.609 19.4722C158.609 19.1053 158.74 18.3978 159.002 17.3496L159.878 13.6772C160.08 12.8312 160.178 12.3109 160.17 12.1162C160.17 11.7793 160.107 11.5584 159.979 11.4536C159.852 11.3413 159.65 11.2852 159.373 11.2852C158.669 11.2852 157.486 12.367 155.824 14.5308L154.948 18.3491C154.926 18.4614 154.892 18.6336 154.847 18.8657C154.81 19.0978 154.772 19.2775 154.735 19.4048C154.705 19.5246 154.656 19.6593 154.589 19.8091C154.521 19.9588 154.431 20.0636 154.319 20.1235C154.207 20.1909 154.065 20.2246 153.892 20.2246C153.234 20.2246 152.904 20.0187 152.904 19.6069C152.904 19.577 153.001 19.1577 153.196 18.3491L154.499 12.6216C154.634 11.9777 154.701 11.5846 154.701 11.4424C154.701 11.1654 154.562 11.0119 154.285 10.9819L153.365 10.9146C153.192 10.6675 153.185 10.4541 153.342 10.2744C154.675 10.0723 155.641 9.97119 156.24 9.97119C156.554 9.97119 156.711 10.1322 156.711 10.4541C156.711 10.9932 156.55 11.7194 156.228 12.6328L156.15 12.8462L156.172 12.8687C157.183 11.6857 157.992 10.8958 158.598 10.499C159.204 10.1022 159.83 9.90381 160.473 9.90381C161.484 9.90381 161.99 10.5177 161.99 11.7456C161.99 12.0376 161.892 12.6178 161.698 13.4863L160.822 17.1475ZM166.011 16.0918C166.011 17.1774 166.186 17.9972 166.538 18.5513C166.89 19.1053 167.265 19.3823 167.661 19.3823C168.672 19.3823 169.484 18.9144 170.098 17.9785C170.757 16.9678 171.087 15.5715 171.087 13.7896C171.087 12.8537 170.971 12.1499 170.739 11.6782C170.394 11.0044 169.93 10.6675 169.346 10.6675C168.597 10.6675 167.953 10.9857 167.414 11.6221C166.875 12.251 166.505 12.9585 166.303 13.7446C166.108 14.5308 166.011 15.3132 166.011 16.0918ZM164.101 16.2715C164.101 15.5527 164.217 14.8302 164.449 14.104C164.689 13.3703 165.03 12.6852 165.471 12.0488C165.921 11.4124 166.516 10.8958 167.257 10.499C168.006 10.1022 168.841 9.90381 169.761 9.90381C171.925 9.90381 173.003 11.1466 172.996 13.6323C172.996 14.965 172.659 16.1966 171.985 17.3271C171.311 18.4502 170.462 19.2738 169.436 19.7979C168.852 20.0898 168.144 20.2321 167.313 20.2246C166.624 20.2246 166.048 20.0861 165.584 19.8091C165.127 19.5246 164.798 19.154 164.595 18.6973C164.401 18.2331 164.27 17.8138 164.202 17.4395C164.135 17.0576 164.101 16.6683 164.101 16.2715ZM176.41 10.1284L176.714 8.98291C176.744 8.86312 176.785 8.65348 176.837 8.354C176.89 8.05452 176.938 7.8374 176.983 7.70264C177.028 7.56038 177.11 7.42562 177.23 7.29834C177.357 7.16357 177.522 7.09619 177.724 7.09619C178.338 7.09619 178.645 7.30208 178.645 7.71387C178.645 7.74382 178.544 8.20426 178.342 9.09521L178.106 10.1284H180.386C180.506 10.2183 180.532 10.3755 180.465 10.6001C180.397 10.8247 180.296 10.967 180.161 11.0269H177.904L176.545 17.0801C176.373 17.8288 176.287 18.3117 176.287 18.5288C176.294 18.7459 176.395 18.8545 176.59 18.8545C176.972 18.8545 177.586 18.3791 178.432 17.4282C178.709 17.4282 178.877 17.5742 178.937 17.8662C178.555 18.555 178.039 19.1203 177.387 19.562C176.736 20.0037 176.141 20.2246 175.602 20.2246C175.22 20.2246 174.935 20.1497 174.748 20C174.569 19.8503 174.479 19.5732 174.479 19.1689C174.479 18.862 174.587 18.2331 174.804 17.2822L176.197 11.0269H174.591C174.501 11.0269 174.456 11.0119 174.456 10.9819C174.456 10.9071 174.486 10.776 174.546 10.5889C174.606 10.3418 174.819 10.2145 175.186 10.207L176.41 10.1284ZM191.954 15.5415C192.658 14.2537 193.01 13.3179 193.01 12.7339C193.01 12.2922 192.871 11.8504 192.594 11.4087C192.317 10.9595 191.973 10.7349 191.561 10.7349C190.887 10.7349 190.247 11.0531 189.641 11.6895C189.034 12.3258 188.563 13.0895 188.226 13.9805C187.889 14.8639 187.72 15.7212 187.72 16.5522C187.72 18.2967 188.02 19.1689 188.619 19.1689C189.046 19.1689 189.562 18.832 190.169 18.1582C190.775 17.4844 191.37 16.6121 191.954 15.5415ZM191.954 17.3271L191.876 17.2822C191.172 18.3079 190.532 19.0566 189.955 19.5283C189.386 19.9925 188.81 20.2246 188.226 20.2246C187.597 20.2246 187.099 20.0262 186.732 19.6294C186.365 19.2326 186.129 18.8133 186.025 18.3716C185.927 17.9224 185.879 17.4395 185.879 16.9229C185.879 15.1784 186.496 13.5724 187.732 12.105C188.967 10.6375 190.221 9.90381 191.494 9.90381C191.906 9.90381 192.276 10.0236 192.606 10.2632C192.935 10.4953 193.167 10.7985 193.302 11.1729H193.324L194.178 7.05127C194.283 6.52718 194.339 6.14535 194.346 5.90576C194.346 5.479 194.185 5.26188 193.863 5.25439L193.145 5.20947C193.07 5.20947 193.032 5.17204 193.032 5.09717L193.1 4.54688C194.432 4.45703 195.507 4.25488 196.323 3.94043C196.51 3.94043 196.6 4.01904 196.592 4.17627C196.443 4.7902 196.252 5.59505 196.02 6.59082L193.583 17.2373C193.433 17.971 193.354 18.4015 193.347 18.5288C193.347 18.7459 193.44 18.8545 193.628 18.8545C193.89 18.8545 194.32 18.4465 194.919 17.6304C195.121 17.6304 195.297 17.7539 195.447 18.001C194.773 19.4909 193.792 20.2321 192.505 20.2246C191.876 20.2246 191.561 19.8802 191.561 19.1914C191.561 18.9593 191.636 18.54 191.786 17.9336L191.954 17.3271ZM199.76 7.68018C199.543 7.46305 199.434 7.20101 199.434 6.89404C199.434 6.58708 199.543 6.32503 199.76 6.10791C199.984 5.89079 200.243 5.78223 200.535 5.78223C200.827 5.78223 201.081 5.89079 201.298 6.10791C201.523 6.32503 201.635 6.58708 201.635 6.89404C201.635 7.20101 201.523 7.46305 201.298 7.68018C201.081 7.88981 200.827 7.99463 200.535 7.99463C200.243 7.99463 199.984 7.88981 199.76 7.68018ZM200.445 12.6328L199.412 17.1475C199.24 17.8812 199.153 18.3192 199.153 18.4614C199.153 18.7235 199.232 18.8545 199.389 18.8545C199.509 18.8545 199.715 18.7422 200.007 18.5176C200.299 18.293 200.591 18.0197 200.883 17.6978C201.145 17.6978 201.321 17.8288 201.411 18.0908C200.288 19.5133 199.221 20.2246 198.21 20.2246C197.581 20.2246 197.267 19.9738 197.267 19.4722C197.267 19.255 197.398 18.5475 197.66 17.3496L198.738 12.6216C198.873 12.0376 198.944 11.6445 198.951 11.4424C198.951 11.1654 198.813 11.0119 198.536 10.9819L197.615 10.9146C197.443 10.6675 197.435 10.4541 197.592 10.2744C199.157 10.0723 200.108 9.97119 200.445 9.97119C200.759 9.97119 200.917 10.1322 200.917 10.4541C200.917 10.5739 200.894 10.7349 200.849 10.937C200.812 11.1392 200.744 11.4349 200.647 11.8242C200.55 12.2061 200.482 12.4756 200.445 12.6328ZM204.702 20.2246C203.938 20.1797 203.305 19.9813 202.804 19.6294C202.31 19.2775 202.063 18.8807 202.063 18.439C202.063 18.2518 202.13 18.0721 202.265 17.8999C202.407 17.7202 202.624 17.6304 202.916 17.6304C203.223 17.6304 203.466 17.7539 203.646 18.001C203.833 18.248 203.949 18.5326 203.994 18.8545C204.024 19.1016 204.114 19.2663 204.264 19.3486C204.421 19.431 204.661 19.4722 204.982 19.4722C205.551 19.4722 206.019 19.3374 206.386 19.0679C206.753 18.7983 206.937 18.3641 206.937 17.7651C206.937 17.0164 206.469 16.3276 205.533 15.6987C204.2 14.7928 203.534 13.8195 203.534 12.7788C203.534 12.0301 203.833 11.3638 204.432 10.7798C205.031 10.1958 205.806 9.90381 206.757 9.90381C207.446 9.90381 208.052 10.1022 208.576 10.499C209.108 10.8958 209.374 11.3114 209.374 11.7456C209.374 12.2697 209.097 12.528 208.543 12.5205C208.266 12.5205 208.026 12.4007 207.824 12.1611C207.629 11.9141 207.517 11.637 207.487 11.3301C207.427 10.8883 207.083 10.6675 206.454 10.6675C205.997 10.6675 205.641 10.8285 205.387 11.1504C205.132 11.4723 205.005 11.8542 205.005 12.2959C205.005 12.8499 205.312 13.3328 205.926 13.7446C206.937 14.4185 207.644 15.0324 208.048 15.5864C208.46 16.1405 208.666 16.7057 208.666 17.2822C208.666 18.1582 208.34 18.8695 207.689 19.416C207.038 19.9551 206.158 20.2246 205.05 20.2246H204.702ZM214.933 6.59082L212.586 17.0801C212.399 17.8962 212.305 18.3791 212.305 18.5288C212.305 18.7459 212.399 18.8545 212.586 18.8545C212.736 18.8545 212.975 18.731 213.305 18.4839C213.634 18.2368 213.96 17.9149 214.282 17.5181C214.514 17.5181 214.682 17.6491 214.787 17.9111C213.851 19.4609 212.739 20.2321 211.452 20.2246C210.808 20.2246 210.486 19.8877 210.486 19.2139C210.486 18.877 210.594 18.2256 210.812 17.2598L213.091 7.05127C213.196 6.57959 213.249 6.19775 213.249 5.90576C213.249 5.479 213.088 5.26188 212.766 5.25439L212.058 5.20947C211.983 5.20947 211.942 5.17204 211.935 5.09717L212.013 4.54688C213.346 4.45703 214.417 4.25488 215.225 3.94043C215.412 3.94043 215.506 4.01904 215.506 4.17627C215.341 4.7902 215.15 5.59505 214.933 6.59082ZM218.954 7.68018C218.737 7.46305 218.628 7.20101 218.628 6.89404C218.628 6.58708 218.737 6.32503 218.954 6.10791C219.179 5.89079 219.437 5.78223 219.729 5.78223C220.021 5.78223 220.276 5.89079 220.493 6.10791C220.717 6.32503 220.83 6.58708 220.83 6.89404C220.83 7.20101 220.717 7.46305 220.493 7.68018C220.276 7.88981 220.021 7.99463 219.729 7.99463C219.437 7.99463 219.179 7.88981 218.954 7.68018ZM219.639 12.6328L218.606 17.1475C218.434 17.8812 218.348 18.3192 218.348 18.4614C218.348 18.7235 218.426 18.8545 218.583 18.8545C218.703 18.8545 218.909 18.7422 219.201 18.5176C219.493 18.293 219.785 18.0197 220.077 17.6978C220.339 17.6978 220.515 17.8288 220.605 18.0908C219.482 19.5133 218.415 20.2246 217.404 20.2246C216.775 20.2246 216.461 19.9738 216.461 19.4722C216.461 19.255 216.592 18.5475 216.854 17.3496L217.932 12.6216C218.067 12.0376 218.138 11.6445 218.145 11.4424C218.145 11.1654 218.007 11.0119 217.73 10.9819L216.809 10.9146C216.637 10.6675 216.629 10.4541 216.787 10.2744C218.351 10.0723 219.302 9.97119 219.639 9.97119C219.954 9.97119 220.111 10.1322 220.111 10.4541C220.111 10.5739 220.088 10.7349 220.043 10.937C220.006 11.1392 219.939 11.4349 219.841 11.8242C219.744 12.2061 219.677 12.4756 219.639 12.6328ZM221.942 18.3491L224.48 7.05127C224.585 6.57959 224.637 6.19775 224.637 5.90576C224.637 5.479 224.476 5.26188 224.154 5.25439L223.435 5.20947C223.361 5.20947 223.323 5.17204 223.323 5.09717L223.391 4.54688C224.723 4.45703 225.798 4.25488 226.614 3.94043C226.801 3.94043 226.894 4.01904 226.894 4.17627C226.745 4.7902 226.55 5.59505 226.31 6.59082L224.66 13.7446C225.019 13.7446 225.472 13.5088 226.018 13.0371L226.939 12.251C228.706 10.6862 229.972 9.90381 230.735 9.90381C231.484 9.90381 231.858 10.1733 231.858 10.7124C231.858 11.0343 231.731 11.3076 231.477 11.5322C231.222 11.7493 230.997 11.8579 230.803 11.8579C230.526 11.8579 230.286 11.8055 230.084 11.7007C229.889 11.5884 229.698 11.5322 229.511 11.5322C229.099 11.5322 228.362 12.0076 227.299 12.9585L226.108 14.0254V14.1152C226.46 14.2051 226.704 14.3324 226.838 14.4971C226.981 14.6543 227.16 14.9388 227.377 15.3506C227.452 15.5003 227.617 15.8896 227.872 16.5186C228.134 17.14 228.388 17.6865 228.635 18.1582C228.65 18.1882 228.676 18.2406 228.714 18.3154C228.759 18.3828 228.789 18.4315 228.804 18.4614C228.819 18.4914 228.841 18.5363 228.871 18.5962C228.901 18.6561 228.923 18.6973 228.938 18.7197C228.953 18.7422 228.98 18.7759 229.017 18.8208C229.054 18.8582 229.084 18.8882 229.107 18.9106C229.129 18.9331 229.159 18.9556 229.197 18.978C229.242 19.0005 229.287 19.0155 229.331 19.0229C229.376 19.0304 229.421 19.0342 229.466 19.0342C229.758 19.0342 230.155 18.6673 230.657 17.9336C230.829 17.9336 231.001 18.0309 231.173 18.2256C230.41 19.5583 229.635 20.2246 228.849 20.2246C228.392 20.2246 227.995 20.0449 227.658 19.6855C227.329 19.3262 226.969 18.7197 226.58 17.8662C226.438 17.5518 226.247 17.0501 226.007 16.3613C225.775 15.665 225.588 15.1821 225.446 14.9126C225.303 14.6655 225.15 14.542 224.985 14.542C224.776 14.542 224.607 14.5682 224.48 14.6206L223.649 18.3491C223.634 18.439 223.604 18.6074 223.559 18.8545C223.514 19.1016 223.473 19.2812 223.435 19.3936C223.406 19.5059 223.357 19.6406 223.289 19.7979C223.222 19.9551 223.129 20.0636 223.009 20.1235C222.896 20.1909 222.758 20.2246 222.593 20.2246C221.964 20.2246 221.65 20.0187 221.65 19.6069C221.65 19.577 221.747 19.1577 221.942 18.3491ZM238.788 11.4873C238.788 11.1504 238.702 10.922 238.53 10.8022C238.365 10.675 238.077 10.6113 237.665 10.6113C236.295 10.6113 235.28 11.9215 234.621 14.542C235.116 14.4821 235.584 14.3885 236.025 14.2612C236.467 14.1265 236.905 13.9468 237.339 13.7222C237.781 13.4901 238.133 13.1831 238.395 12.8013C238.657 12.4119 238.788 11.974 238.788 11.4873ZM234.464 15.418C234.449 15.5378 234.442 15.7998 234.442 16.2041C234.442 17.1849 234.592 17.8737 234.891 18.2705C235.19 18.6598 235.621 18.8545 236.183 18.8545C236.752 18.8545 237.227 18.7572 237.609 18.5625C237.998 18.3678 238.507 17.9486 239.136 17.3047C239.383 17.3047 239.559 17.4282 239.664 17.6753C238.346 19.3748 236.912 20.2246 235.363 20.2246C234.442 20.2246 233.738 19.8989 233.251 19.2476C232.772 18.5962 232.533 17.7576 232.533 16.7319C232.533 16.133 232.596 15.5228 232.724 14.9014C232.858 14.2799 233.075 13.6698 233.375 13.0708C233.674 12.4644 234.037 11.9328 234.464 11.4761C234.891 11.0119 235.426 10.6338 236.07 10.3418C236.714 10.0498 237.422 9.90381 238.193 9.90381C238.926 9.90381 239.473 10.091 239.832 10.4653C240.192 10.8397 240.371 11.2178 240.371 11.5996C240.371 11.8018 240.368 11.9515 240.36 12.0488C240.353 12.1387 240.315 12.2996 240.248 12.5317C240.181 12.7563 240.076 12.951 239.933 13.1157C239.799 13.2729 239.589 13.4676 239.305 13.6997C239.02 13.9318 238.676 14.1377 238.271 14.3174C237.867 14.4896 237.339 14.673 236.688 14.8677C236.037 15.0623 235.295 15.2458 234.464 15.418ZM252.793 20L251.749 21.606C251.015 22.744 250.229 23.6574 249.39 24.3462C248.552 25.035 247.826 25.3794 247.212 25.3794C246.92 25.3794 246.613 25.3008 246.291 25.1436C245.969 24.9938 245.808 24.7505 245.808 24.4136C245.808 24.0767 245.92 23.7959 246.145 23.5713C246.369 23.3542 246.613 23.2456 246.875 23.2456C247.167 23.2456 247.433 23.3504 247.672 23.5601C248.009 23.8371 248.279 23.9756 248.481 23.9756C248.653 23.9756 248.956 23.7323 249.39 23.2456C249.825 22.7664 250.266 22.16 250.716 21.4263C250.85 21.1193 250.779 19.9102 250.502 17.7988C250.225 15.68 249.918 14.0441 249.581 12.8911C249.439 12.4045 249.319 12.0825 249.222 11.9253C249.117 11.7456 248.904 11.6595 248.582 11.667C248.275 11.667 247.773 11.8317 247.077 12.1611C246.92 12.0114 246.819 11.7756 246.774 11.4536C247.223 11.1242 247.777 10.7835 248.436 10.4316C249.102 10.0798 249.563 9.90381 249.817 9.90381C250.094 9.90381 250.319 10.0311 250.491 10.2856C250.671 10.5402 250.843 10.9782 251.008 11.5996C251.322 12.9023 251.543 14.119 251.67 15.2495C251.805 16.3726 251.914 17.724 251.996 19.3037L252.153 19.3711C252.325 19.1165 252.561 18.7572 252.861 18.293C253.145 17.8138 253.392 17.4095 253.602 17.0801L253.916 16.5859C255.069 14.7741 255.65 13.4489 255.657 12.6104C255.657 12.1761 255.496 11.7157 255.174 11.229C255.092 11.1017 255.051 10.9445 255.051 10.7573C255.051 10.1883 255.406 9.90381 256.117 9.90381C256.919 9.90381 257.319 10.2669 257.319 10.9932C257.319 11.6595 257.113 12.4756 256.701 13.4414C256.507 13.8906 256.132 14.5794 255.578 15.5078C255.032 16.4362 254.594 17.1587 254.264 17.6753L252.793 20ZM259.319 16.0918C259.319 17.1774 259.495 17.9972 259.846 18.5513C260.198 19.1053 260.573 19.3823 260.97 19.3823C261.98 19.3823 262.793 18.9144 263.407 17.9785C264.065 16.9678 264.395 15.5715 264.395 13.7896C264.395 12.8537 264.279 12.1499 264.047 11.6782C263.702 11.0044 263.238 10.6675 262.654 10.6675C261.905 10.6675 261.262 10.9857 260.722 11.6221C260.183 12.251 259.813 12.9585 259.611 13.7446C259.416 14.5308 259.319 15.3132 259.319 16.0918ZM257.409 16.2715C257.409 15.5527 257.526 14.8302 257.758 14.104C257.997 13.3703 258.338 12.6852 258.78 12.0488C259.229 11.4124 259.824 10.8958 260.565 10.499C261.314 10.1022 262.149 9.90381 263.07 9.90381C265.233 9.90381 266.311 11.1466 266.304 13.6323C266.304 14.965 265.967 16.1966 265.293 17.3271C264.619 18.4502 263.77 19.2738 262.744 19.7979C262.16 20.0898 261.452 20.2321 260.621 20.2246C259.933 20.2246 259.356 20.0861 258.892 19.8091C258.435 19.5246 258.106 19.154 257.904 18.6973C257.709 18.2331 257.578 17.8138 257.511 17.4395C257.443 17.0576 257.409 16.6683 257.409 16.2715ZM277.074 11.9028L275.794 17.1475C275.622 17.8812 275.536 18.3192 275.536 18.4614C275.536 18.7235 275.614 18.8545 275.772 18.8545C275.892 18.8545 276.097 18.7422 276.389 18.5176C276.681 18.293 276.973 18.0197 277.265 17.6978C277.527 17.6978 277.703 17.8288 277.793 18.0908C276.67 19.5133 275.603 20.2246 274.593 20.2246C274.024 20.2246 273.739 19.9738 273.739 19.4722C273.739 18.978 273.87 18.2705 274.132 17.3496L274.39 16.4624L274.323 16.4175C273.387 17.7801 272.597 18.7572 271.953 19.3486C271.309 19.9326 270.572 20.2246 269.741 20.2246C269.299 20.2246 268.932 20.0749 268.64 19.7754C268.348 19.4684 268.202 19.008 268.202 18.394C268.202 17.9373 268.277 17.4207 268.427 16.8442L269.438 12.981C269.64 12.2472 269.741 11.813 269.741 11.6782C269.741 11.4162 269.662 11.2852 269.505 11.2852C269.385 11.2852 269.161 11.3975 268.831 11.6221C268.502 11.8392 268.199 12.1087 267.922 12.4307C267.66 12.4307 267.484 12.2996 267.394 12.0376C268.517 10.6151 269.674 9.90381 270.864 9.90381C271.418 9.90381 271.695 10.1584 271.695 10.6675C271.695 10.7873 271.534 11.491 271.212 12.7788L270.224 16.5298C270.089 17.0688 270.022 17.5592 270.022 18.001C270.022 18.57 270.25 18.8545 270.707 18.8545C271.246 18.8545 271.807 18.5026 272.391 17.7988C272.983 17.0876 273.746 15.9271 274.682 14.3174L275.356 11.7905C275.386 11.6707 275.431 11.4574 275.491 11.1504C275.551 10.8434 275.6 10.6263 275.637 10.499C275.674 10.3643 275.76 10.2332 275.895 10.106C276.038 9.97119 276.21 9.90381 276.412 9.90381C277.056 9.90381 277.378 10.1097 277.378 10.5215C277.378 10.5964 277.359 10.7199 277.322 10.8921C277.284 11.0643 277.235 11.2552 277.176 11.4648C277.123 11.667 277.089 11.813 277.074 11.9028Z" fill="black"/>
</svg>
